<?xml version="1.0" encoding="UTF-8"?>
<svg xmlns="http://www.w3.org/2000/svg" xmlns:xlink="http://www.w3.org/1999/xlink" width="1920" height="1080" viewBox="0 0 1920 1080">
<defs>
<g>
<g id="glyph-0-0">
<path d="M 1.515625 -0.140625 C 1.359375 -0.503906 1.164062 -0.851562 0.9375 -1.1875 C 0.71875 -1.519531 0.46875 -1.828125 0.1875 -2.109375 L 0.390625 -2.28125 C 0.648438 -2.019531 0.882812 -1.738281 1.09375 -1.4375 C 1.300781 -1.132812 1.484375 -0.820312 1.640625 -0.5 C 1.867188 -1.164062 2.144531 -1.8125 2.46875 -2.4375 C 2.800781 -3.0625 3.175781 -3.660156 3.59375 -4.234375 L 3.828125 -4.09375 C 3.378906 -3.5 2.984375 -2.867188 2.640625 -2.203125 C 2.304688 -1.535156 2.023438 -0.847656 1.796875 -0.140625 Z "/>
</g>
<g id="glyph-1-0">
</g>
<g id="glyph-1-1">
<path d="M 4.75 -4.375 L 4.75 -4.203125 L 4.265625 -4.109375 L 2.515625 0.09375 L 2.34375 0.09375 L 0.5625 -4.109375 L 0.078125 -4.203125 L 0.078125 -4.375 L 1.84375 -4.375 L 1.84375 -4.203125 L 1.25 -4.109375 L 2.578125 -0.890625 L 3.890625 -4.109375 L 3.328125 -4.203125 L 3.328125 -4.375 Z "/>
</g>
<g id="glyph-1-2">
<path d="M 3.25 -0.140625 L 3.25 0 L 1.859375 0 L 1.859375 -0.140625 L 2.28125 -0.21875 L 1.5625 -1.3125 L 0.734375 -0.21875 L 1.15625 -0.140625 L 1.15625 0 L 0.0625 0 L 0.0625 -0.140625 L 0.40625 -0.203125 L 1.421875 -1.53125 L 0.53125 -2.828125 L 0.171875 -2.921875 L 0.171875 -3.0625 L 1.5625 -3.0625 L 1.5625 -2.921875 L 1.15625 -2.828125 L 1.75 -1.953125 L 2.421875 -2.828125 L 2 -2.921875 L 2 -3.0625 L 3.09375 -3.0625 L 3.09375 -2.921875 L 2.75 -2.84375 L 1.890625 -1.734375 L 2.890625 -0.21875 Z "/>
</g>
<g id="glyph-1-3">
<path d="M 1.515625 -3.125 C 1.847656 -3.125 2.09375 -3.054688 2.25 -2.921875 C 2.40625 -2.785156 2.484375 -2.578125 2.484375 -2.296875 L 2.484375 -0.234375 L 2.875 -0.140625 L 2.875 0 L 2.03125 0 L 1.96875 -0.3125 C 1.71875 -0.0625 1.398438 0.0625 1.015625 0.0625 C 0.492188 0.0625 0.234375 -0.238281 0.234375 -0.84375 C 0.234375 -1.050781 0.269531 -1.21875 0.34375 -1.34375 C 0.425781 -1.476562 0.554688 -1.582031 0.734375 -1.65625 C 0.910156 -1.726562 1.160156 -1.769531 1.484375 -1.78125 L 1.953125 -1.78125 L 1.953125 -2.265625 C 1.953125 -2.472656 1.910156 -2.628906 1.828125 -2.734375 C 1.753906 -2.835938 1.632812 -2.890625 1.46875 -2.890625 C 1.257812 -2.890625 1.0625 -2.835938 0.875 -2.734375 L 0.765625 -2.34375 L 0.59375 -2.34375 L 0.59375 -3.015625 C 0.9375 -3.085938 1.242188 -3.125 1.515625 -3.125 Z M 1.953125 -1.5625 L 1.515625 -1.546875 C 1.222656 -1.535156 1.023438 -1.476562 0.921875 -1.375 C 0.828125 -1.269531 0.78125 -1.097656 0.78125 -0.859375 C 0.78125 -0.484375 0.929688 -0.296875 1.234375 -0.296875 C 1.390625 -0.296875 1.519531 -0.3125 1.625 -0.34375 C 1.726562 -0.375 1.835938 -0.414062 1.953125 -0.46875 Z "/>
</g>
<g id="glyph-1-4">
<path d="M 1.0625 -2.8125 C 1.226562 -2.90625 1.40625 -2.984375 1.59375 -3.046875 C 1.78125 -3.109375 1.9375 -3.140625 2.0625 -3.140625 C 2.320312 -3.140625 2.519531 -3.0625 2.65625 -2.90625 C 2.789062 -2.757812 2.859375 -2.535156 2.859375 -2.234375 L 2.859375 -0.234375 L 3.234375 -0.140625 L 3.234375 0 L 1.921875 0 L 1.921875 -0.140625 L 2.328125 -0.234375 L 2.328125 -2.1875 C 2.328125 -2.363281 2.28125 -2.503906 2.1875 -2.609375 C 2.101562 -2.710938 1.96875 -2.765625 1.78125 -2.765625 C 1.582031 -2.765625 1.34375 -2.734375 1.0625 -2.671875 L 1.0625 -0.234375 L 1.46875 -0.140625 L 1.46875 0 L 0.15625 0 L 0.15625 -0.140625 L 0.515625 -0.234375 L 0.515625 -2.828125 L 0.15625 -2.921875 L 0.15625 -3.0625 L 1.03125 -3.0625 Z "/>
</g>
<g id="glyph-1-5">
<path d="M 2.359375 -0.234375 C 2.109375 -0.0351562 1.820312 0.0625 1.5 0.0625 C 0.65625 0.0625 0.234375 -0.457031 0.234375 -1.5 C 0.234375 -2.039062 0.351562 -2.445312 0.59375 -2.71875 C 0.832031 -3 1.179688 -3.140625 1.640625 -3.140625 C 1.878906 -3.140625 2.117188 -3.113281 2.359375 -3.0625 C 2.335938 -3.132812 2.328125 -3.316406 2.328125 -3.609375 L 2.328125 -4.40625 L 1.828125 -4.484375 L 1.828125 -4.625 L 2.875 -4.625 L 2.875 -0.234375 L 3.25 -0.140625 L 3.25 0 L 2.390625 0 Z M 0.828125 -1.5 C 0.828125 -1.09375 0.894531 -0.785156 1.03125 -0.578125 C 1.175781 -0.378906 1.390625 -0.28125 1.671875 -0.28125 C 1.921875 -0.28125 2.140625 -0.320312 2.328125 -0.40625 L 2.328125 -2.828125 C 2.140625 -2.859375 1.921875 -2.875 1.671875 -2.875 C 1.109375 -2.875 0.828125 -2.414062 0.828125 -1.5 Z "/>
</g>
<g id="glyph-1-6">
<path d="M 0.640625 1.4375 C 0.472656 1.4375 0.304688 1.414062 0.140625 1.375 L 0.140625 0.71875 L 0.296875 0.71875 L 0.40625 1.03125 C 0.476562 1.082031 0.570312 1.109375 0.6875 1.109375 C 0.800781 1.109375 0.90625 1.070312 1 1 C 1.09375 0.9375 1.175781 0.84375 1.25 0.71875 C 1.332031 0.59375 1.4375 0.363281 1.5625 0.03125 L 0.390625 -2.828125 L 0.078125 -2.921875 L 0.078125 -3.0625 L 1.5 -3.0625 L 1.5 -2.921875 L 1.015625 -2.828125 L 1.84375 -0.6875 L 2.65625 -2.828125 L 2.171875 -2.921875 L 2.171875 -3.0625 L 3.3125 -3.0625 L 3.3125 -2.921875 L 2.984375 -2.84375 L 1.796875 0.1875 C 1.648438 0.550781 1.523438 0.8125 1.421875 0.96875 C 1.316406 1.125 1.203125 1.238281 1.078125 1.3125 C 0.953125 1.394531 0.804688 1.4375 0.640625 1.4375 Z "/>
</g>
<g id="glyph-1-7">
<path d="M 1.0625 -2.8125 C 1.226562 -2.90625 1.398438 -2.984375 1.578125 -3.046875 C 1.765625 -3.109375 1.925781 -3.140625 2.0625 -3.140625 C 2.207031 -3.140625 2.34375 -3.109375 2.46875 -3.046875 C 2.601562 -2.992188 2.703125 -2.90625 2.765625 -2.78125 C 2.929688 -2.875 3.125 -2.957031 3.34375 -3.03125 C 3.570312 -3.101562 3.757812 -3.140625 3.90625 -3.140625 C 4.425781 -3.140625 4.6875 -2.835938 4.6875 -2.234375 L 4.6875 -0.234375 L 5.078125 -0.140625 L 5.078125 0 L 3.6875 0 L 3.6875 -0.140625 L 4.15625 -0.234375 L 4.15625 -2.1875 C 4.15625 -2.5625 3.976562 -2.75 3.625 -2.75 C 3.570312 -2.75 3.503906 -2.742188 3.421875 -2.734375 C 3.347656 -2.722656 3.273438 -2.710938 3.203125 -2.703125 C 3.128906 -2.691406 3.054688 -2.675781 2.984375 -2.65625 C 2.921875 -2.644531 2.867188 -2.632812 2.828125 -2.625 C 2.859375 -2.507812 2.875 -2.378906 2.875 -2.234375 L 2.875 -0.234375 L 3.34375 -0.140625 L 3.34375 0 L 1.890625 0 L 1.890625 -0.140625 L 2.328125 -0.234375 L 2.328125 -2.1875 C 2.328125 -2.363281 2.28125 -2.5 2.1875 -2.59375 C 2.101562 -2.695312 1.96875 -2.75 1.78125 -2.75 C 1.59375 -2.75 1.351562 -2.71875 1.0625 -2.65625 L 1.0625 -0.234375 L 1.53125 -0.140625 L 1.53125 0 L 0.140625 0 L 0.140625 -0.140625 L 0.53125 -0.234375 L 0.53125 -2.828125 L 0.140625 -2.921875 L 0.140625 -3.0625 L 1.03125 -3.0625 Z "/>
</g>
<g id="glyph-1-8">
<path d="M 1.015625 -0.875 C 1.015625 -0.5 1.191406 -0.3125 1.546875 -0.3125 C 1.804688 -0.3125 2.054688 -0.34375 2.296875 -0.40625 L 2.296875 -2.828125 L 1.828125 -2.921875 L 1.828125 -3.0625 L 2.828125 -3.0625 L 2.828125 -0.234375 L 3.21875 -0.140625 L 3.21875 0 L 2.328125 0 L 2.296875 -0.25 C 2.148438 -0.164062 1.972656 -0.09375 1.765625 -0.03125 C 1.566406 0.03125 1.398438 0.0625 1.265625 0.0625 C 0.742188 0.0625 0.484375 -0.234375 0.484375 -0.828125 L 0.484375 -2.828125 L 0.09375 -2.921875 L 0.09375 -3.0625 L 1.015625 -3.0625 Z "/>
</g>
<g id="glyph-1-9">
<path d="M 2.359375 -0.859375 C 2.359375 -0.554688 2.257812 -0.328125 2.0625 -0.171875 C 1.875 -0.015625 1.59375 0.0625 1.21875 0.0625 C 1.0625 0.0625 0.890625 0.046875 0.703125 0.015625 C 0.523438 -0.015625 0.382812 -0.0507812 0.28125 -0.09375 L 0.28125 -0.84375 L 0.421875 -0.84375 L 0.59375 -0.40625 C 0.75 -0.257812 0.957031 -0.1875 1.21875 -0.1875 C 1.644531 -0.1875 1.859375 -0.367188 1.859375 -0.734375 C 1.859375 -0.992188 1.691406 -1.179688 1.359375 -1.296875 L 1.0625 -1.390625 C 0.84375 -1.460938 0.679688 -1.535156 0.578125 -1.609375 C 0.484375 -1.679688 0.410156 -1.769531 0.359375 -1.875 C 0.304688 -1.988281 0.28125 -2.125 0.28125 -2.28125 C 0.28125 -2.539062 0.367188 -2.75 0.546875 -2.90625 C 0.734375 -3.0625 0.984375 -3.140625 1.296875 -3.140625 C 1.515625 -3.140625 1.796875 -3.109375 2.140625 -3.046875 L 2.140625 -2.375 L 1.984375 -2.375 L 1.84375 -2.734375 C 1.726562 -2.835938 1.546875 -2.890625 1.296875 -2.890625 C 1.117188 -2.890625 0.984375 -2.84375 0.890625 -2.75 C 0.804688 -2.664062 0.765625 -2.550781 0.765625 -2.40625 C 0.765625 -2.28125 0.804688 -2.175781 0.890625 -2.09375 C 0.972656 -2.007812 1.097656 -1.9375 1.265625 -1.875 C 1.585938 -1.769531 1.796875 -1.691406 1.890625 -1.640625 C 1.984375 -1.585938 2.0625 -1.523438 2.125 -1.453125 C 2.195312 -1.378906 2.253906 -1.296875 2.296875 -1.203125 C 2.335938 -1.109375 2.359375 -0.992188 2.359375 -0.859375 Z "/>
</g>
<g id="glyph-1-10">
<path d="M 1.09375 0.0625 C 0.882812 0.0625 0.726562 0 0.625 -0.125 C 0.519531 -0.25 0.46875 -0.421875 0.46875 -0.640625 L 0.46875 -2.78125 L 0.0625 -2.78125 L 0.0625 -2.9375 L 0.46875 -3.0625 L 0.796875 -3.75 L 1 -3.75 L 1 -3.0625 L 1.703125 -3.0625 L 1.703125 -2.78125 L 1 -2.78125 L 1 -0.703125 C 1 -0.554688 1.03125 -0.445312 1.09375 -0.375 C 1.164062 -0.3125 1.253906 -0.28125 1.359375 -0.28125 C 1.484375 -0.28125 1.632812 -0.296875 1.8125 -0.328125 L 1.8125 -0.109375 C 1.738281 -0.0546875 1.628906 -0.015625 1.484375 0.015625 C 1.335938 0.046875 1.207031 0.0625 1.09375 0.0625 Z "/>
</g>
<g id="glyph-1-11">
<path d="M 2.5 -1.609375 C 2.5 -2.015625 2.425781 -2.3125 2.28125 -2.5 C 2.144531 -2.695312 1.929688 -2.796875 1.640625 -2.796875 C 1.515625 -2.796875 1.390625 -2.785156 1.265625 -2.765625 C 1.140625 -2.742188 1.046875 -2.71875 0.984375 -2.6875 L 0.984375 -0.265625 C 1.171875 -0.234375 1.390625 -0.21875 1.640625 -0.21875 C 1.941406 -0.21875 2.160156 -0.332031 2.296875 -0.5625 C 2.429688 -0.800781 2.5 -1.148438 2.5 -1.609375 Z M 0.453125 -4.40625 L 0 -4.484375 L 0 -4.625 L 0.984375 -4.625 L 0.984375 -3.53125 C 0.984375 -3.414062 0.976562 -3.203125 0.96875 -2.890625 C 1.1875 -3.054688 1.457031 -3.140625 1.78125 -3.140625 C 2.195312 -3.140625 2.515625 -3.015625 2.734375 -2.765625 C 2.960938 -2.515625 3.078125 -2.128906 3.078125 -1.609375 C 3.078125 -1.066406 2.953125 -0.648438 2.703125 -0.359375 C 2.460938 -0.078125 2.113281 0.0625 1.65625 0.0625 C 1.46875 0.0625 1.257812 0.0390625 1.03125 0 C 0.8125 -0.0390625 0.617188 -0.09375 0.453125 -0.15625 Z "/>
</g>
<g id="glyph-1-12">
<path d="M 0.84375 -1.546875 L 0.84375 -1.484375 C 0.84375 -1.179688 0.875 -0.945312 0.9375 -0.78125 C 1.007812 -0.613281 1.113281 -0.488281 1.25 -0.40625 C 1.382812 -0.320312 1.566406 -0.28125 1.796875 -0.28125 C 1.910156 -0.28125 2.046875 -0.285156 2.203125 -0.296875 C 2.367188 -0.316406 2.503906 -0.34375 2.609375 -0.375 L 2.609375 -0.1875 C 2.503906 -0.113281 2.363281 -0.0507812 2.1875 0 C 2.007812 0.0390625 1.828125 0.0625 1.640625 0.0625 C 1.160156 0.0625 0.8125 -0.0625 0.59375 -0.3125 C 0.375 -0.570312 0.265625 -0.984375 0.265625 -1.546875 C 0.265625 -2.085938 0.375 -2.488281 0.59375 -2.75 C 0.820312 -3.007812 1.140625 -3.140625 1.546875 -3.140625 C 2.335938 -3.140625 2.734375 -2.695312 2.734375 -1.8125 L 2.734375 -1.546875 Z M 1.546875 -2.890625 C 1.328125 -2.890625 1.15625 -2.796875 1.03125 -2.609375 C 0.914062 -2.421875 0.859375 -2.148438 0.859375 -1.796875 L 2.15625 -1.796875 C 2.15625 -2.191406 2.101562 -2.472656 2 -2.640625 C 1.90625 -2.804688 1.753906 -2.890625 1.546875 -2.890625 Z "/>
</g>
<g id="glyph-1-13">
<path d="M 2.75 -0.1875 C 2.644531 -0.101562 2.5 -0.0390625 2.3125 0 C 2.125 0.0390625 1.9375 0.0625 1.75 0.0625 C 0.75 0.0625 0.25 -0.472656 0.25 -1.546875 C 0.25 -2.054688 0.375 -2.445312 0.625 -2.71875 C 0.882812 -3 1.25 -3.140625 1.71875 -3.140625 C 2.007812 -3.140625 2.332031 -3.109375 2.6875 -3.046875 L 2.6875 -2.1875 L 2.5 -2.1875 L 2.359375 -2.734375 C 2.179688 -2.835938 1.96875 -2.890625 1.71875 -2.890625 C 1.132812 -2.890625 0.84375 -2.441406 0.84375 -1.546875 C 0.84375 -1.085938 0.929688 -0.757812 1.109375 -0.5625 C 1.285156 -0.375 1.554688 -0.28125 1.921875 -0.28125 C 2.242188 -0.28125 2.519531 -0.3125 2.75 -0.375 Z "/>
</g>
<g id="glyph-1-14">
<path d="M 3.078125 -1.546875 C 3.078125 -0.472656 2.597656 0.0625 1.640625 0.0625 C 1.179688 0.0625 0.832031 -0.0703125 0.59375 -0.34375 C 0.363281 -0.625 0.25 -1.023438 0.25 -1.546875 C 0.25 -2.066406 0.363281 -2.460938 0.59375 -2.734375 C 0.832031 -3.003906 1.191406 -3.140625 1.671875 -3.140625 C 2.140625 -3.140625 2.488281 -3.003906 2.71875 -2.734375 C 2.957031 -2.472656 3.078125 -2.078125 3.078125 -1.546875 Z M 2.5 -1.546875 C 2.5 -2.015625 2.425781 -2.351562 2.28125 -2.5625 C 2.144531 -2.78125 1.929688 -2.890625 1.640625 -2.890625 C 1.359375 -2.890625 1.15625 -2.785156 1.03125 -2.578125 C 0.90625 -2.378906 0.84375 -2.035156 0.84375 -1.546875 C 0.84375 -1.054688 0.90625 -0.707031 1.03125 -0.5 C 1.164062 -0.289062 1.367188 -0.1875 1.640625 -0.1875 C 1.929688 -0.1875 2.144531 -0.289062 2.28125 -0.5 C 2.425781 -0.71875 2.5 -1.066406 2.5 -1.546875 Z "/>
</g>
<g id="glyph-1-15">
<path d="M 2.828125 -2.09375 C 2.828125 -1.738281 2.722656 -1.472656 2.515625 -1.296875 C 2.304688 -1.117188 2.003906 -1.03125 1.609375 -1.03125 C 1.429688 -1.03125 1.265625 -1.046875 1.109375 -1.078125 L 0.90625 -0.640625 C 0.914062 -0.609375 0.957031 -0.578125 1.03125 -0.546875 C 1.113281 -0.515625 1.210938 -0.5 1.328125 -0.5 L 2.234375 -0.5 C 2.566406 -0.5 2.8125 -0.425781 2.96875 -0.28125 C 3.125 -0.132812 3.203125 0.0625 3.203125 0.3125 C 3.203125 0.539062 3.140625 0.738281 3.015625 0.90625 C 2.890625 1.070312 2.703125 1.203125 2.453125 1.296875 C 2.210938 1.390625 1.914062 1.4375 1.5625 1.4375 C 1.144531 1.4375 0.828125 1.375 0.609375 1.25 C 0.390625 1.125 0.28125 0.941406 0.28125 0.703125 C 0.28125 0.585938 0.316406 0.472656 0.390625 0.359375 C 0.472656 0.242188 0.617188 0.113281 0.828125 -0.03125 C 0.703125 -0.0703125 0.597656 -0.140625 0.515625 -0.234375 C 0.429688 -0.335938 0.390625 -0.445312 0.390625 -0.5625 L 0.90625 -1.140625 C 0.5625 -1.304688 0.390625 -1.625 0.390625 -2.09375 C 0.390625 -2.425781 0.492188 -2.679688 0.703125 -2.859375 C 0.921875 -3.046875 1.234375 -3.140625 1.640625 -3.140625 C 1.710938 -3.140625 1.8125 -3.128906 1.9375 -3.109375 C 2.070312 -3.097656 2.171875 -3.082031 2.234375 -3.0625 L 2.953125 -3.421875 L 3.0625 -3.28125 L 2.609375 -2.8125 C 2.753906 -2.65625 2.828125 -2.414062 2.828125 -2.09375 Z M 2.703125 0.40625 C 2.703125 0.289062 2.660156 0.195312 2.578125 0.125 C 2.503906 0.0507812 2.390625 0.015625 2.234375 0.015625 L 1.0625 0.015625 C 0.96875 0.0976562 0.890625 0.195312 0.828125 0.3125 C 0.773438 0.4375 0.75 0.550781 0.75 0.65625 C 0.75 0.84375 0.816406 0.972656 0.953125 1.046875 C 1.085938 1.128906 1.289062 1.171875 1.5625 1.171875 C 1.925781 1.171875 2.207031 1.101562 2.40625 0.96875 C 2.601562 0.84375 2.703125 0.65625 2.703125 0.40625 Z M 1.609375 -1.28125 C 1.847656 -1.28125 2.015625 -1.347656 2.109375 -1.484375 C 2.210938 -1.617188 2.265625 -1.820312 2.265625 -2.09375 C 2.265625 -2.382812 2.210938 -2.585938 2.109375 -2.703125 C 2.015625 -2.828125 1.851562 -2.890625 1.625 -2.890625 C 1.394531 -2.890625 1.226562 -2.828125 1.125 -2.703125 C 1.019531 -2.585938 0.96875 -2.382812 0.96875 -2.09375 C 0.96875 -1.8125 1.019531 -1.601562 1.125 -1.46875 C 1.226562 -1.34375 1.390625 -1.28125 1.609375 -1.28125 Z "/>
</g>
<g id="glyph-1-16">
<path d="M 1.0625 -3.296875 C 1.0625 -3.078125 1.054688 -2.914062 1.046875 -2.8125 C 1.203125 -2.90625 1.378906 -2.984375 1.578125 -3.046875 C 1.773438 -3.109375 1.941406 -3.140625 2.078125 -3.140625 C 2.335938 -3.140625 2.535156 -3.0625 2.671875 -2.90625 C 2.804688 -2.757812 2.875 -2.535156 2.875 -2.234375 L 2.875 -0.234375 L 3.25 -0.140625 L 3.25 0 L 1.921875 0 L 1.921875 -0.140625 L 2.328125 -0.234375 L 2.328125 -2.203125 C 2.328125 -2.578125 2.148438 -2.765625 1.796875 -2.765625 C 1.585938 -2.765625 1.34375 -2.734375 1.0625 -2.671875 L 1.0625 -0.234375 L 1.46875 -0.140625 L 1.46875 0 L 0.140625 0 L 0.140625 -0.140625 L 0.515625 -0.234375 L 0.515625 -4.40625 L 0.0625 -4.484375 L 0.0625 -4.625 L 1.0625 -4.625 Z "/>
</g>
<g id="glyph-1-17">
<path d="M 2.15625 -3.140625 L 2.15625 -2.3125 L 2.015625 -2.3125 L 1.828125 -2.671875 C 1.722656 -2.671875 1.59375 -2.65625 1.4375 -2.625 C 1.289062 -2.601562 1.164062 -2.566406 1.0625 -2.515625 L 1.0625 -0.234375 L 1.59375 -0.140625 L 1.59375 0 L 0.140625 0 L 0.140625 -0.140625 L 0.515625 -0.234375 L 0.515625 -2.828125 L 0.140625 -2.921875 L 0.140625 -3.0625 L 1.03125 -3.0625 L 1.0625 -2.6875 C 1.1875 -2.789062 1.359375 -2.890625 1.578125 -2.984375 C 1.804688 -3.085938 1.984375 -3.140625 2.109375 -3.140625 Z "/>
</g>
</g>
</defs>
<g fill="rgb(97.647059%, 88.627451%, 68.627451%)" fill-opacity="1">
<use xlink:href="#glyph-0-0" x="30" y="26.433594"/>
</g>
<g fill="rgb(97.647059%, 88.627451%, 68.627451%)" fill-opacity="1">
<use xlink:href="#glyph-1-0" x="34" y="26.433594"/>
<use xlink:href="#glyph-1-0" x="36" y="26.433594"/>
<use xlink:href="#glyph-1-1" x="38" y="26.433594"/>
<use xlink:href="#glyph-1-2" x="43" y="26.433594"/>
<use xlink:href="#glyph-1-0" x="46" y="26.433594"/>
<use xlink:href="#glyph-1-3" x="48" y="26.433594"/>
<use xlink:href="#glyph-1-4" x="51" y="26.433594"/>
<use xlink:href="#glyph-1-5" x="54" y="26.433594"/>
<use xlink:href="#glyph-1-0" x="57" y="26.433594"/>
<use xlink:href="#glyph-1-1" x="59" y="26.433594"/>
<use xlink:href="#glyph-1-6" x="63" y="26.433594"/>
<use xlink:href="#glyph-1-0" x="66" y="26.433594"/>
<use xlink:href="#glyph-1-7" x="68" y="26.433594"/>
<use xlink:href="#glyph-1-8" x="73" y="26.433594"/>
<use xlink:href="#glyph-1-9" x="76" y="26.433594"/>
<use xlink:href="#glyph-1-10" x="79" y="26.433594"/>
<use xlink:href="#glyph-1-0" x="81" y="26.433594"/>
<use xlink:href="#glyph-1-11" x="83" y="26.433594"/>
<use xlink:href="#glyph-1-12" x="86" y="26.433594"/>
<use xlink:href="#glyph-1-0" x="89" y="26.433594"/>
<use xlink:href="#glyph-1-13" x="91" y="26.433594"/>
<use xlink:href="#glyph-1-14" x="94" y="26.433594"/>
<use xlink:href="#glyph-1-4" x="97" y="26.433594"/>
<use xlink:href="#glyph-1-13" x="100" y="26.433594"/>
<use xlink:href="#glyph-1-3" x="103" y="26.433594"/>
<use xlink:href="#glyph-1-10" x="106" y="26.433594"/>
<use xlink:href="#glyph-1-12" x="108" y="26.433594"/>
<use xlink:href="#glyph-1-4" x="111" y="26.433594"/>
<use xlink:href="#glyph-1-3" x="114" y="26.433594"/>
<use xlink:href="#glyph-1-10" x="117" y="26.433594"/>
<use xlink:href="#glyph-1-12" x="119" y="26.433594"/>
<use xlink:href="#glyph-1-5" x="122" y="26.433594"/>
<use xlink:href="#glyph-1-0" x="125" y="26.433594"/>
<use xlink:href="#glyph-1-10" x="127" y="26.433594"/>
<use xlink:href="#glyph-1-14" x="129" y="26.433594"/>
<use xlink:href="#glyph-1-15" x="132" y="26.433594"/>
<use xlink:href="#glyph-1-12" x="135" y="26.433594"/>
<use xlink:href="#glyph-1-10" x="138" y="26.433594"/>
<use xlink:href="#glyph-1-16" x="140" y="26.433594"/>
<use xlink:href="#glyph-1-12" x="143" y="26.433594"/>
<use xlink:href="#glyph-1-17" x="146" y="26.433594"/>
</g>
</svg>
