<?xml version="1.0" encoding="UTF-8"?>
<svg xmlns="http://www.w3.org/2000/svg" xmlns:xlink="http://www.w3.org/1999/xlink" width="854" height="480" viewBox="0 0 854 480">
<defs>
<g>
<g id="glyph-0-0">
<path d="M 11.40625 0.234375 L 10.46875 0.234375 L 7.9375 -6.046875 L 5.421875 0.234375 L 4.484375 0.234375 L 1.109375 -9.4375 L 0.21875 -9.640625 L 0.21875 -10.1875 L 4.796875 -10.1875 L 4.796875 -9.640625 L 3.609375 -9.4375 L 5.78125 -3.359375 L 8.15625 -9.328125 L 9.109375 -9.328125 L 11.5 -3.375 L 13.3125 -9.4375 L 12.015625 -9.640625 L 12.015625 -10.1875 L 15.3125 -10.1875 L 15.3125 -9.640625 L 14.4375 -9.4375 Z "/>
</g>
<g id="glyph-0-1">
<path d="M 3.3125 -7.703125 C 3.3125 -7.367188 3.296875 -6.972656 3.265625 -6.515625 L 3.796875 -6.78125 C 4.515625 -7.144531 5.160156 -7.328125 5.734375 -7.328125 C 7.046875 -7.328125 7.703125 -6.628906 7.703125 -5.234375 L 7.703125 -0.6875 L 8.421875 -0.5 L 8.421875 0 L 4.875 0 L 4.875 -0.5 L 5.515625 -0.6875 L 5.515625 -4.9375 C 5.515625 -5.351562 5.421875 -5.679688 5.234375 -5.921875 C 5.054688 -6.160156 4.800781 -6.28125 4.46875 -6.28125 C 4.082031 -6.28125 3.695312 -6.195312 3.3125 -6.03125 L 3.3125 -0.6875 L 3.96875 -0.5 L 3.96875 0 L 0.421875 0 L 0.421875 -0.5 L 1.109375 -0.6875 L 1.109375 -10.109375 L 0.390625 -10.296875 L 0.390625 -10.796875 L 3.3125 -10.796875 Z "/>
</g>
<g id="glyph-0-2">
<path d="M 4.15625 -7.296875 C 5.9375 -7.296875 6.828125 -6.640625 6.828125 -5.328125 L 6.828125 -0.6875 L 7.546875 -0.5 L 7.546875 0 L 4.921875 0 L 4.75 -0.546875 C 4.351562 -0.273438 3.992188 -0.09375 3.671875 0 C 3.359375 0.101562 3.039062 0.15625 2.71875 0.15625 C 1.238281 0.15625 0.5 -0.550781 0.5 -1.96875 C 0.5 -2.507812 0.609375 -2.941406 0.828125 -3.265625 C 1.046875 -3.585938 1.359375 -3.820312 1.765625 -3.96875 C 2.179688 -4.125 2.828125 -4.210938 3.703125 -4.234375 L 4.640625 -4.265625 L 4.640625 -5.296875 C 4.640625 -6.160156 4.285156 -6.59375 3.578125 -6.59375 C 3.148438 -6.59375 2.675781 -6.460938 2.15625 -6.203125 L 1.859375 -5.3125 L 1.359375 -5.3125 L 1.359375 -7.03125 C 2.117188 -7.15625 2.679688 -7.226562 3.046875 -7.25 C 3.410156 -7.28125 3.78125 -7.296875 4.15625 -7.296875 Z M 4.640625 -3.59375 L 4 -3.5625 C 3.507812 -3.539062 3.164062 -3.410156 2.96875 -3.171875 C 2.78125 -2.929688 2.6875 -2.546875 2.6875 -2.015625 C 2.6875 -1.585938 2.757812 -1.269531 2.90625 -1.0625 C 3.0625 -0.863281 3.265625 -0.765625 3.515625 -0.765625 C 3.859375 -0.765625 4.234375 -0.851562 4.640625 -1.03125 Z "/>
</g>
<g id="glyph-0-3">
<path d="M 3.328125 0.15625 C 2.640625 0.15625 2.109375 0 1.734375 -0.3125 C 1.367188 -0.625 1.1875 -1.070312 1.1875 -1.65625 L 1.1875 -6.359375 L 0.25 -6.359375 L 0.25 -6.84375 L 1.359375 -7.140625 L 2.234375 -8.765625 L 3.375 -8.765625 L 3.375 -7.140625 L 4.890625 -7.140625 L 4.890625 -6.359375 L 3.375 -6.359375 L 3.375 -1.78125 C 3.375 -1.457031 3.441406 -1.210938 3.578125 -1.046875 C 3.722656 -0.878906 3.90625 -0.796875 4.125 -0.796875 C 4.394531 -0.796875 4.722656 -0.832031 5.109375 -0.90625 L 5.109375 -0.265625 C 4.960938 -0.160156 4.703125 -0.0664062 4.328125 0.015625 C 3.960938 0.109375 3.628906 0.15625 3.328125 0.15625 Z "/>
</g>
<g id="glyph-0-4">
</g>
<g id="glyph-0-5">
<path d="M 3.28125 -0.6875 L 4.0625 -0.5 L 4.0625 0 L 0.296875 0 L 0.296875 -0.5 L 1.078125 -0.6875 L 1.078125 -10.109375 L 0.34375 -10.296875 L 0.34375 -10.796875 L 3.28125 -10.796875 Z "/>
</g>
<g id="glyph-0-6">
<path d="M 3.75 -7.3125 C 4.71875 -7.3125 5.414062 -7.050781 5.84375 -6.53125 C 6.28125 -6.019531 6.5 -5.222656 6.5 -4.140625 L 6.5 -3.515625 L 2.765625 -3.515625 L 2.765625 -3.390625 C 2.765625 -2.628906 2.820312 -2.085938 2.9375 -1.765625 C 3.0625 -1.453125 3.257812 -1.210938 3.53125 -1.046875 C 3.800781 -0.878906 4.175781 -0.796875 4.65625 -0.796875 C 5.101562 -0.796875 5.664062 -0.867188 6.34375 -1.015625 L 6.34375 -0.4375 C 6.0625 -0.269531 5.695312 -0.128906 5.25 -0.015625 C 4.8125 0.0859375 4.382812 0.140625 3.96875 0.140625 C 2.800781 0.140625 1.9375 -0.160156 1.375 -0.765625 C 0.8125 -1.378906 0.53125 -2.328125 0.53125 -3.609375 C 0.53125 -4.859375 0.796875 -5.785156 1.328125 -6.390625 C 1.867188 -7.003906 2.675781 -7.3125 3.75 -7.3125 Z M 3.671875 -6.546875 C 3.367188 -6.546875 3.140625 -6.378906 2.984375 -6.046875 C 2.835938 -5.722656 2.765625 -5.144531 2.765625 -4.3125 L 4.421875 -4.3125 C 4.421875 -4.988281 4.394531 -5.460938 4.34375 -5.734375 C 4.300781 -6.015625 4.222656 -6.21875 4.109375 -6.34375 C 4.003906 -6.476562 3.859375 -6.546875 3.671875 -6.546875 Z "/>
</g>
<g id="glyph-0-7">
<path d="M 4.40625 0.15625 L 3.484375 0.15625 L 0.5 -6.453125 L 0 -6.640625 L 0 -7.140625 L 3.65625 -7.140625 L 3.65625 -6.640625 L 2.796875 -6.4375 L 4.640625 -2.375 L 6.28125 -6.453125 L 5.453125 -6.640625 L 5.453125 -7.140625 L 7.78125 -7.140625 L 7.78125 -6.640625 L 7.265625 -6.484375 Z "/>
</g>
<g id="glyph-0-8">
<path d="M 7.1875 -3.609375 C 7.1875 -2.328125 6.910156 -1.378906 6.359375 -0.765625 C 5.816406 -0.148438 4.976562 0.15625 3.84375 0.15625 C 2.75 0.15625 1.929688 -0.148438 1.390625 -0.765625 C 0.859375 -1.390625 0.59375 -2.335938 0.59375 -3.609375 C 0.59375 -4.867188 0.863281 -5.800781 1.40625 -6.40625 C 1.945312 -7.019531 2.78125 -7.328125 3.90625 -7.328125 C 5.03125 -7.328125 5.859375 -7.007812 6.390625 -6.375 C 6.921875 -5.75 7.1875 -4.828125 7.1875 -3.609375 Z M 4.96875 -3.609375 C 4.96875 -4.722656 4.882812 -5.492188 4.71875 -5.921875 C 4.550781 -6.347656 4.265625 -6.5625 3.859375 -6.5625 C 3.472656 -6.5625 3.203125 -6.351562 3.046875 -5.9375 C 2.890625 -5.53125 2.8125 -4.753906 2.8125 -3.609375 C 2.8125 -2.441406 2.890625 -1.648438 3.046875 -1.234375 C 3.203125 -0.816406 3.472656 -0.609375 3.859375 -0.609375 C 4.253906 -0.609375 4.535156 -0.828125 4.703125 -1.265625 C 4.878906 -1.703125 4.96875 -2.484375 4.96875 -3.609375 Z "/>
</g>
<g id="glyph-0-9">
<path d="M 1.1875 -6.359375 L 0.109375 -6.359375 L 0.109375 -6.875 L 1.1875 -7.171875 L 1.1875 -7.9375 C 1.1875 -8.914062 1.4375 -9.660156 1.9375 -10.171875 C 2.4375 -10.691406 3.148438 -10.953125 4.078125 -10.953125 C 4.578125 -10.953125 4.992188 -10.90625 5.328125 -10.8125 L 5.328125 -9.109375 L 4.84375 -9.109375 L 4.625 -9.9375 C 4.507812 -10.0625 4.351562 -10.125 4.15625 -10.125 C 3.644531 -10.125 3.390625 -9.476562 3.390625 -8.1875 L 3.390625 -7.140625 L 4.84375 -7.140625 L 4.84375 -6.359375 L 3.390625 -6.359375 L 3.390625 -0.6875 L 4.546875 -0.5 L 4.546875 0 L 0.421875 0 L 0.421875 -0.5 L 1.1875 -0.6875 Z "/>
</g>
<g id="glyph-0-10">
<path d="M 3.3125 -0.6875 L 4.09375 -0.5 L 4.09375 0 L 0.34375 0 L 0.34375 -0.5 L 1.109375 -0.6875 L 1.109375 -6.453125 L 0.390625 -6.640625 L 0.390625 -7.140625 L 3.3125 -7.140625 Z M 1.046875 -9.640625 C 1.046875 -9.960938 1.160156 -10.234375 1.390625 -10.453125 C 1.617188 -10.679688 1.894531 -10.796875 2.21875 -10.796875 C 2.539062 -10.796875 2.8125 -10.679688 3.03125 -10.453125 C 3.257812 -10.234375 3.375 -9.960938 3.375 -9.640625 C 3.375 -9.316406 3.257812 -9.039062 3.03125 -8.8125 C 2.8125 -8.582031 2.539062 -8.46875 2.21875 -8.46875 C 1.882812 -8.46875 1.601562 -8.578125 1.375 -8.796875 C 1.15625 -9.023438 1.046875 -9.304688 1.046875 -9.640625 Z "/>
</g>
<g id="glyph-0-11">
<path d="M 3.5 -5.65625 C 4.050781 -6.269531 4.539062 -6.707031 4.96875 -6.96875 C 5.40625 -7.238281 5.800781 -7.375 6.15625 -7.375 L 6.578125 -7.375 L 6.578125 -4.765625 L 6.140625 -4.765625 L 5.703125 -5.71875 C 5.378906 -5.71875 5.015625 -5.644531 4.609375 -5.5 C 4.203125 -5.363281 3.847656 -5.203125 3.546875 -5.015625 L 3.546875 -0.6875 L 4.6875 -0.5 L 4.6875 0 L 0.421875 0 L 0.421875 -0.5 L 1.34375 -0.6875 L 1.34375 -6.453125 L 0.421875 -6.640625 L 0.421875 -7.140625 L 3.421875 -7.140625 Z "/>
</g>
<g id="glyph-0-12">
<path d="M 3.296875 -6.515625 L 3.8125 -6.78125 C 4.519531 -7.144531 5.160156 -7.328125 5.734375 -7.328125 C 7.046875 -7.328125 7.703125 -6.628906 7.703125 -5.234375 L 7.703125 -0.6875 L 8.421875 -0.5 L 8.421875 0 L 4.875 0 L 4.875 -0.5 L 5.515625 -0.6875 L 5.515625 -4.9375 C 5.515625 -5.351562 5.421875 -5.679688 5.234375 -5.921875 C 5.054688 -6.160156 4.800781 -6.28125 4.46875 -6.28125 C 4.082031 -6.28125 3.695312 -6.195312 3.3125 -6.03125 L 3.3125 -0.6875 L 3.96875 -0.5 L 3.96875 0 L 0.421875 0 L 0.421875 -0.5 L 1.109375 -0.6875 L 1.109375 -6.453125 L 0.421875 -6.640625 L 0.421875 -7.140625 L 3.1875 -7.140625 Z "/>
</g>
<g id="glyph-0-13">
<path d="M 1.953125 -2.640625 C 1.046875 -3.015625 0.59375 -3.753906 0.59375 -4.859375 C 0.59375 -5.648438 0.867188 -6.257812 1.421875 -6.6875 C 1.972656 -7.113281 2.765625 -7.328125 3.796875 -7.328125 C 4.015625 -7.328125 4.296875 -7.304688 4.640625 -7.265625 C 4.984375 -7.234375 5.234375 -7.191406 5.390625 -7.140625 L 7.09375 -7.984375 L 7.359375 -7.65625 L 6.5 -6.421875 C 6.8125 -6.035156 6.96875 -5.515625 6.96875 -4.859375 C 6.96875 -4.054688 6.691406 -3.4375 6.140625 -3 C 5.597656 -2.570312 4.804688 -2.359375 3.765625 -2.359375 C 3.367188 -2.359375 2.984375 -2.390625 2.609375 -2.453125 L 2.421875 -1.875 C 2.429688 -1.726562 2.523438 -1.585938 2.703125 -1.453125 C 2.878906 -1.328125 3.097656 -1.265625 3.359375 -1.265625 L 5.015625 -1.265625 C 6.753906 -1.265625 7.625 -0.59375 7.625 0.75 C 7.625 1.300781 7.472656 1.773438 7.171875 2.171875 C 6.867188 2.566406 6.425781 2.875 5.84375 3.09375 C 5.257812 3.320312 4.53125 3.4375 3.65625 3.4375 C 2.625 3.4375 1.820312 3.285156 1.25 2.984375 C 0.6875 2.691406 0.40625 2.285156 0.40625 1.765625 C 0.40625 1.535156 0.5 1.316406 0.6875 1.109375 C 0.875 0.898438 1.234375 0.640625 1.765625 0.328125 C 1.460938 0.210938 1.207031 0.0078125 1 -0.28125 C 0.789062 -0.570312 0.6875 -0.875 0.6875 -1.1875 Z M 5.96875 1.265625 C 5.96875 0.785156 5.644531 0.546875 5 0.546875 L 2.59375 0.546875 C 2.144531 0.867188 1.921875 1.234375 1.921875 1.640625 C 1.921875 1.960938 2.078125 2.203125 2.390625 2.359375 C 2.703125 2.523438 3.128906 2.609375 3.671875 2.609375 C 4.398438 2.609375 4.960938 2.488281 5.359375 2.25 C 5.765625 2.019531 5.96875 1.691406 5.96875 1.265625 Z M 3.75 -3.109375 C 4.125 -3.109375 4.394531 -3.253906 4.5625 -3.546875 C 4.726562 -3.835938 4.8125 -4.273438 4.8125 -4.859375 C 4.8125 -5.441406 4.726562 -5.867188 4.5625 -6.140625 C 4.40625 -6.421875 4.132812 -6.5625 3.75 -6.5625 C 3.40625 -6.5625 3.148438 -6.421875 2.984375 -6.140625 C 2.828125 -5.867188 2.75 -5.441406 2.75 -4.859375 C 2.75 -4.273438 2.828125 -3.835938 2.984375 -3.546875 C 3.140625 -3.253906 3.394531 -3.109375 3.75 -3.109375 Z "/>
</g>
<g id="glyph-0-14">
<path d="M 3.375 0.21875 C 3.019531 0.21875 2.722656 0.0976562 2.484375 -0.140625 C 2.242188 -0.390625 2.125 -0.691406 2.125 -1.046875 C 2.125 -1.398438 2.242188 -1.695312 2.484375 -1.9375 C 2.722656 -2.175781 3.019531 -2.296875 3.375 -2.296875 C 3.726562 -2.296875 4.023438 -2.175781 4.265625 -1.9375 C 4.515625 -1.695312 4.640625 -1.398438 4.640625 -1.046875 C 4.640625 -0.691406 4.515625 -0.390625 4.265625 -0.140625 C 4.023438 0.0976562 3.726562 0.21875 3.375 0.21875 Z M 3.734375 -2.96875 L 2.953125 -2.96875 L 2.515625 -5.34375 L 3.234375 -5.53125 C 3.765625 -5.664062 4.132812 -5.894531 4.34375 -6.21875 C 4.550781 -6.550781 4.65625 -6.992188 4.65625 -7.546875 C 4.65625 -8.242188 4.53125 -8.75 4.28125 -9.0625 C 4.039062 -9.375 3.640625 -9.53125 3.078125 -9.53125 C 2.648438 -9.53125 2.273438 -9.421875 1.953125 -9.203125 L 1.625 -7.734375 L 0.9375 -7.734375 L 0.9375 -9.984375 C 1.78125 -10.191406 2.601562 -10.296875 3.40625 -10.296875 C 5.707031 -10.296875 6.859375 -9.398438 6.859375 -7.609375 C 6.859375 -6.867188 6.660156 -6.242188 6.265625 -5.734375 C 5.867188 -5.234375 5.3125 -4.882812 4.59375 -4.6875 L 3.9375 -4.5 Z "/>
</g>
</g>
</defs>
<g fill="rgb(100%, 100%, 100%)" fill-opacity="1">
<use xlink:href="#glyph-0-0" x="30" y="33.862305"/>
<use xlink:href="#glyph-0-1" x="46" y="33.862305"/>
<use xlink:href="#glyph-0-2" x="55" y="33.862305"/>
<use xlink:href="#glyph-0-3" x="63" y="33.862305"/>
<use xlink:href="#glyph-0-4" x="68" y="33.862305"/>
<use xlink:href="#glyph-0-5" x="72" y="33.862305"/>
<use xlink:href="#glyph-0-6" x="76" y="33.862305"/>
<use xlink:href="#glyph-0-7" x="83" y="33.862305"/>
<use xlink:href="#glyph-0-6" x="91" y="33.862305"/>
<use xlink:href="#glyph-0-5" x="98" y="33.862305"/>
<use xlink:href="#glyph-0-4" x="102" y="33.862305"/>
<use xlink:href="#glyph-0-8" x="106" y="33.862305"/>
<use xlink:href="#glyph-0-9" x="114" y="33.862305"/>
<use xlink:href="#glyph-0-4" x="119" y="33.862305"/>
<use xlink:href="#glyph-0-9" x="123" y="33.862305"/>
<use xlink:href="#glyph-0-10" x="128" y="33.862305"/>
<use xlink:href="#glyph-0-5" x="132" y="33.862305"/>
<use xlink:href="#glyph-0-3" x="136" y="33.862305"/>
<use xlink:href="#glyph-0-6" x="141" y="33.862305"/>
<use xlink:href="#glyph-0-11" x="148" y="33.862305"/>
<use xlink:href="#glyph-0-10" x="155" y="33.862305"/>
<use xlink:href="#glyph-0-12" x="159" y="33.862305"/>
<use xlink:href="#glyph-0-13" x="168" y="33.862305"/>
<use xlink:href="#glyph-0-14" x="176" y="33.862305"/>
</g>
</svg>
