<?xml version="1.0" encoding="UTF-8"?>
<svg xmlns="http://www.w3.org/2000/svg" xmlns:xlink="http://www.w3.org/1999/xlink" width="854" height="480" viewBox="0 0 854 480">
<defs>
<g>
<g id="glyph-0-0">
<path d="M 11.40625 0.234375 L 10.46875 0.234375 L 7.9375 -6.046875 L 5.421875 0.234375 L 4.484375 0.234375 L 1.109375 -9.4375 L 0.21875 -9.640625 L 0.21875 -10.1875 L 4.796875 -10.1875 L 4.796875 -9.640625 L 3.609375 -9.4375 L 5.78125 -3.359375 L 8.15625 -9.328125 L 9.109375 -9.328125 L 11.5 -3.375 L 13.3125 -9.4375 L 12.015625 -9.640625 L 12.015625 -10.1875 L 15.3125 -10.1875 L 15.3125 -9.640625 L 14.4375 -9.4375 Z "/>
</g>
<g id="glyph-0-1">
<path d="M 3.3125 -7.703125 C 3.3125 -7.367188 3.296875 -6.972656 3.265625 -6.515625 L 3.796875 -6.78125 C 4.515625 -7.144531 5.160156 -7.328125 5.734375 -7.328125 C 7.046875 -7.328125 7.703125 -6.628906 7.703125 -5.234375 L 7.703125 -0.6875 L 8.421875 -0.5 L 8.421875 0 L 4.875 0 L 4.875 -0.5 L 5.515625 -0.6875 L 5.515625 -4.9375 C 5.515625 -5.351562 5.421875 -5.679688 5.234375 -5.921875 C 5.054688 -6.160156 4.800781 -6.28125 4.46875 -6.28125 C 4.082031 -6.28125 3.695312 -6.195312 3.3125 -6.03125 L 3.3125 -0.6875 L 3.96875 -0.5 L 3.96875 0 L 0.421875 0 L 0.421875 -0.5 L 1.109375 -0.6875 L 1.109375 -10.109375 L 0.390625 -10.296875 L 0.390625 -10.796875 L 3.3125 -10.796875 Z "/>
</g>
<g id="glyph-0-2">
<path d="M 3.515625 0.21875 L 0.65625 -6.453125 L 0.15625 -6.640625 L 0.15625 -7.140625 L 3.8125 -7.140625 L 3.8125 -6.640625 L 2.953125 -6.4375 L 4.640625 -2.5 L 6.125 -6.453125 L 5.296875 -6.640625 L 5.296875 -7.140625 L 7.625 -7.140625 L 7.625 -6.640625 L 7.109375 -6.484375 L 4.296875 0.453125 C 3.972656 1.273438 3.6875 1.867188 3.4375 2.234375 C 3.195312 2.609375 2.925781 2.890625 2.625 3.078125 C 2.332031 3.265625 2 3.359375 1.625 3.359375 C 1.207031 3.359375 0.785156 3.3125 0.359375 3.21875 L 0.359375 1.375 L 0.828125 1.375 L 1.140625 2.328125 C 1.296875 2.441406 1.484375 2.5 1.703125 2.5 C 1.898438 2.5 2.070312 2.453125 2.21875 2.359375 C 2.363281 2.273438 2.5 2.144531 2.625 1.96875 C 2.757812 1.800781 2.882812 1.59375 3 1.34375 C 3.113281 1.09375 3.285156 0.71875 3.515625 0.21875 Z "/>
</g>
<g id="glyph-0-3">
</g>
<g id="glyph-0-4">
<path d="M 6.625 -7.171875 C 6.625 -7.984375 6.472656 -8.550781 6.171875 -8.875 C 5.867188 -9.195312 5.335938 -9.359375 4.578125 -9.359375 L 3.96875 -9.359375 L 3.96875 -4.828125 L 4.609375 -4.828125 C 5.304688 -4.828125 5.816406 -5.003906 6.140625 -5.359375 C 6.460938 -5.710938 6.625 -6.316406 6.625 -7.171875 Z M 3.96875 -4 L 3.96875 -0.765625 L 5.671875 -0.5625 L 5.671875 0 L 0.359375 0 L 0.359375 -0.5625 L 1.578125 -0.765625 L 1.578125 -9.4375 L 0.265625 -9.640625 L 0.265625 -10.1875 L 4.75 -10.1875 C 6.195312 -10.1875 7.273438 -9.941406 7.984375 -9.453125 C 8.703125 -8.972656 9.0625 -8.21875 9.0625 -7.1875 C 9.0625 -5.0625 7.820312 -4 5.34375 -4 Z "/>
</g>
<g id="glyph-0-5">
<path d="M 3.28125 -5.109375 C 3.28125 -3.492188 3.5 -2.335938 3.9375 -1.640625 C 4.382812 -0.953125 5.09375 -0.609375 6.0625 -0.609375 C 7.019531 -0.609375 7.71875 -0.953125 8.15625 -1.640625 C 8.601562 -2.335938 8.828125 -3.492188 8.828125 -5.109375 C 8.828125 -6.710938 8.601562 -7.847656 8.15625 -8.515625 C 7.71875 -9.191406 7.019531 -9.53125 6.0625 -9.53125 C 5.09375 -9.53125 4.382812 -9.191406 3.9375 -8.515625 C 3.5 -7.847656 3.28125 -6.710938 3.28125 -5.109375 Z M 0.765625 -5.109375 C 0.765625 -8.566406 2.53125 -10.296875 6.0625 -10.296875 C 7.800781 -10.296875 9.113281 -9.859375 10 -8.984375 C 10.894531 -8.109375 11.34375 -6.816406 11.34375 -5.109375 C 11.34375 -3.378906 10.890625 -2.066406 9.984375 -1.171875 C 9.085938 -0.285156 7.78125 0.15625 6.0625 0.15625 C 4.34375 0.15625 3.03125 -0.285156 2.125 -1.171875 C 1.21875 -2.054688 0.765625 -3.367188 0.765625 -5.109375 Z "/>
</g>
<g id="glyph-0-6">
<path d="M 7.953125 -5.09375 C 7.953125 -6.5625 7.679688 -7.640625 7.140625 -8.328125 C 6.609375 -9.015625 5.738281 -9.359375 4.53125 -9.359375 L 3.96875 -9.359375 L 3.96875 -0.859375 C 4.457031 -0.828125 4.894531 -0.8125 5.28125 -0.8125 C 5.945312 -0.8125 6.46875 -0.953125 6.84375 -1.234375 C 7.226562 -1.515625 7.507812 -1.957031 7.6875 -2.5625 C 7.863281 -3.164062 7.953125 -4.007812 7.953125 -5.09375 Z M 5.109375 -10.1875 C 6.941406 -10.1875 8.296875 -9.769531 9.171875 -8.9375 C 10.046875 -8.113281 10.484375 -6.851562 10.484375 -5.15625 C 10.484375 -3.40625 10.0625 -2.101562 9.21875 -1.25 C 8.382812 -0.394531 7.125 0.03125 5.4375 0.03125 L 2.015625 0 L 0.28125 0 L 0.28125 -0.5625 L 1.578125 -0.765625 L 1.578125 -9.4375 L 0.28125 -9.640625 L 0.28125 -10.1875 Z "/>
</g>
<g id="glyph-0-7">
<path d="M 3.375 0.21875 C 3.019531 0.21875 2.722656 0.0976562 2.484375 -0.140625 C 2.242188 -0.390625 2.125 -0.691406 2.125 -1.046875 C 2.125 -1.398438 2.242188 -1.695312 2.484375 -1.9375 C 2.722656 -2.175781 3.019531 -2.296875 3.375 -2.296875 C 3.726562 -2.296875 4.023438 -2.175781 4.265625 -1.9375 C 4.515625 -1.695312 4.640625 -1.398438 4.640625 -1.046875 C 4.640625 -0.691406 4.515625 -0.390625 4.265625 -0.140625 C 4.023438 0.0976562 3.726562 0.21875 3.375 0.21875 Z M 3.734375 -2.96875 L 2.953125 -2.96875 L 2.515625 -5.34375 L 3.234375 -5.53125 C 3.765625 -5.664062 4.132812 -5.894531 4.34375 -6.21875 C 4.550781 -6.550781 4.65625 -6.992188 4.65625 -7.546875 C 4.65625 -8.242188 4.53125 -8.75 4.28125 -9.0625 C 4.039062 -9.375 3.640625 -9.53125 3.078125 -9.53125 C 2.648438 -9.53125 2.273438 -9.421875 1.953125 -9.203125 L 1.625 -7.734375 L 0.9375 -7.734375 L 0.9375 -9.984375 C 1.78125 -10.191406 2.601562 -10.296875 3.40625 -10.296875 C 5.707031 -10.296875 6.859375 -9.398438 6.859375 -7.609375 C 6.859375 -6.867188 6.660156 -6.242188 6.265625 -5.734375 C 5.867188 -5.234375 5.3125 -4.882812 4.59375 -4.6875 L 3.9375 -4.5 Z "/>
</g>
</g>
</defs>
<g fill="rgb(0%, 33.333333%, 83.137255%)" fill-opacity="1">
<use xlink:href="#glyph-0-0" x="30" y="33.862305"/>
<use xlink:href="#glyph-0-1" x="46" y="33.862305"/>
<use xlink:href="#glyph-0-2" x="55" y="33.862305"/>
<use xlink:href="#glyph-0-3" x="63" y="33.862305"/>
<use xlink:href="#glyph-0-4" x="67" y="33.862305"/>
<use xlink:href="#glyph-0-5" x="77" y="33.862305"/>
<use xlink:href="#glyph-0-6" x="89" y="33.862305"/>
<use xlink:href="#glyph-0-7" x="100" y="33.862305"/>
</g>
</svg>
