<?xml version="1.0" encoding="UTF-8"?>
<svg xmlns="http://www.w3.org/2000/svg" xmlns:xlink="http://www.w3.org/1999/xlink" width="1920" height="1080" viewBox="0 0 1920 1080">
<defs>
<g>
<g id="glyph-0-0">
<path d="M 0.796875 -2.109375 C 0.921875 -2.179688 1.050781 -2.238281 1.1875 -2.28125 C 1.332031 -2.332031 1.453125 -2.359375 1.546875 -2.359375 C 1.742188 -2.359375 1.890625 -2.300781 1.984375 -2.1875 C 2.085938 -2.070312 2.140625 -1.90625 2.140625 -1.6875 L 2.140625 -0.171875 L 2.421875 -0.109375 L 2.421875 0 L 1.4375 0 L 1.4375 -0.109375 L 1.734375 -0.171875 L 1.734375 -1.640625 C 1.734375 -1.773438 1.703125 -1.878906 1.640625 -1.953125 C 1.578125 -2.035156 1.472656 -2.078125 1.328125 -2.078125 C 1.179688 -2.078125 1.003906 -2.050781 0.796875 -2 L 0.796875 -0.171875 L 1.109375 -0.109375 L 1.109375 0 L 0.109375 0 L 0.109375 -0.109375 L 0.390625 -0.171875 L 0.390625 -2.125 L 0.109375 -2.1875 L 0.109375 -2.296875 L 0.765625 -2.296875 Z "/>
</g>
<g id="glyph-0-1">
<path d="M 2.3125 -1.15625 C 2.3125 -0.351562 1.953125 0.046875 1.234375 0.046875 C 0.890625 0.046875 0.628906 -0.0546875 0.453125 -0.265625 C 0.273438 -0.472656 0.1875 -0.769531 0.1875 -1.15625 C 0.1875 -1.539062 0.273438 -1.835938 0.453125 -2.046875 C 0.628906 -2.253906 0.894531 -2.359375 1.25 -2.359375 C 1.601562 -2.359375 1.867188 -2.253906 2.046875 -2.046875 C 2.222656 -1.847656 2.3125 -1.550781 2.3125 -1.15625 Z M 1.875 -1.15625 C 1.875 -1.507812 1.820312 -1.765625 1.71875 -1.921875 C 1.613281 -2.078125 1.453125 -2.15625 1.234375 -2.15625 C 1.023438 -2.15625 0.867188 -2.078125 0.765625 -1.921875 C 0.671875 -1.773438 0.625 -1.519531 0.625 -1.15625 C 0.625 -0.789062 0.671875 -0.53125 0.765625 -0.375 C 0.867188 -0.21875 1.023438 -0.140625 1.234375 -0.140625 C 1.453125 -0.140625 1.613281 -0.21875 1.71875 -0.375 C 1.820312 -0.539062 1.875 -0.800781 1.875 -1.15625 Z "/>
</g>
<g id="glyph-0-2">
<path d="M 0.921875 -3.046875 C 0.921875 -2.972656 0.894531 -2.910156 0.84375 -2.859375 C 0.789062 -2.804688 0.726562 -2.78125 0.65625 -2.78125 C 0.582031 -2.78125 0.519531 -2.804688 0.46875 -2.859375 C 0.414062 -2.910156 0.390625 -2.972656 0.390625 -3.046875 C 0.390625 -3.117188 0.414062 -3.179688 0.46875 -3.234375 C 0.519531 -3.285156 0.582031 -3.3125 0.65625 -3.3125 C 0.726562 -3.3125 0.789062 -3.285156 0.84375 -3.234375 C 0.894531 -3.179688 0.921875 -3.117188 0.921875 -3.046875 Z M 0.90625 -0.171875 L 1.296875 -0.109375 L 1.296875 0 L 0.109375 0 L 0.109375 -0.109375 L 0.5 -0.171875 L 0.5 -2.125 L 0.171875 -2.1875 L 0.171875 -2.296875 L 0.90625 -2.296875 Z "/>
</g>
<g id="glyph-0-3">
<path d="M 1.765625 -0.640625 C 1.765625 -0.410156 1.691406 -0.238281 1.546875 -0.125 C 1.398438 -0.0078125 1.1875 0.046875 0.90625 0.046875 C 0.789062 0.046875 0.664062 0.0351562 0.53125 0.015625 C 0.394531 -0.00390625 0.285156 -0.03125 0.203125 -0.0625 L 0.203125 -0.625 L 0.3125 -0.625 L 0.4375 -0.3125 C 0.5625 -0.195312 0.722656 -0.140625 0.921875 -0.140625 C 1.234375 -0.140625 1.390625 -0.273438 1.390625 -0.546875 C 1.390625 -0.742188 1.265625 -0.882812 1.015625 -0.96875 L 0.796875 -1.046875 C 0.628906 -1.097656 0.507812 -1.148438 0.4375 -1.203125 C 0.363281 -1.265625 0.304688 -1.332031 0.265625 -1.40625 C 0.222656 -1.488281 0.203125 -1.585938 0.203125 -1.703125 C 0.203125 -1.898438 0.269531 -2.054688 0.40625 -2.171875 C 0.550781 -2.296875 0.738281 -2.359375 0.96875 -2.359375 C 1.132812 -2.359375 1.34375 -2.332031 1.59375 -2.28125 L 1.59375 -1.78125 L 1.484375 -1.78125 L 1.375 -2.046875 C 1.289062 -2.117188 1.15625 -2.15625 0.96875 -2.15625 C 0.84375 -2.15625 0.742188 -2.125 0.671875 -2.0625 C 0.597656 -2 0.5625 -1.910156 0.5625 -1.796875 C 0.5625 -1.703125 0.59375 -1.625 0.65625 -1.5625 C 0.71875 -1.5 0.816406 -1.445312 0.953125 -1.40625 C 1.191406 -1.320312 1.347656 -1.257812 1.421875 -1.21875 C 1.492188 -1.1875 1.554688 -1.144531 1.609375 -1.09375 C 1.660156 -1.039062 1.695312 -0.976562 1.71875 -0.90625 C 1.75 -0.832031 1.765625 -0.742188 1.765625 -0.640625 Z "/>
</g>
<g id="glyph-0-4">
<path d="M 0.640625 -1.15625 L 0.640625 -1.109375 C 0.640625 -0.890625 0.660156 -0.71875 0.703125 -0.59375 C 0.753906 -0.46875 0.832031 -0.367188 0.9375 -0.296875 C 1.039062 -0.234375 1.175781 -0.203125 1.34375 -0.203125 C 1.4375 -0.203125 1.539062 -0.207031 1.65625 -0.21875 C 1.78125 -0.238281 1.878906 -0.257812 1.953125 -0.28125 L 1.953125 -0.140625 C 1.878906 -0.0859375 1.773438 -0.0390625 1.640625 0 C 1.503906 0.03125 1.363281 0.046875 1.21875 0.046875 C 0.863281 0.046875 0.601562 -0.046875 0.4375 -0.234375 C 0.28125 -0.429688 0.203125 -0.742188 0.203125 -1.171875 C 0.203125 -1.566406 0.285156 -1.863281 0.453125 -2.0625 C 0.617188 -2.257812 0.859375 -2.359375 1.171875 -2.359375 C 1.753906 -2.359375 2.046875 -2.023438 2.046875 -1.359375 L 2.046875 -1.15625 Z M 1.171875 -2.15625 C 0.992188 -2.15625 0.859375 -2.085938 0.765625 -1.953125 C 0.679688 -1.816406 0.640625 -1.613281 0.640625 -1.34375 L 1.625 -1.34375 C 1.625 -1.632812 1.582031 -1.84375 1.5 -1.96875 C 1.425781 -2.09375 1.316406 -2.15625 1.171875 -2.15625 Z "/>
</g>
</g>
</defs>
<g fill="rgb(95.294118%, 54.509804%, 65.882353%)" fill-opacity="1">
<use xlink:href="#glyph-0-0" x="30" y="24.456055"/>
<use xlink:href="#glyph-0-1" x="33" y="24.456055"/>
<use xlink:href="#glyph-0-2" x="36" y="24.456055"/>
<use xlink:href="#glyph-0-3" x="37" y="24.456055"/>
<use xlink:href="#glyph-0-4" x="39" y="24.456055"/>
</g>
</svg>
