<?xml version="1.0" encoding="UTF-8"?>
<svg xmlns="http://www.w3.org/2000/svg" xmlns:xlink="http://www.w3.org/1999/xlink" width="1920" height="1080" viewBox="0 0 1920 1080">
<defs>
<g>
<g id="glyph-0-0">
<path d="M 2.109375 0 L 2.015625 0 L 0.828125 -2.8125 L 0.828125 -0.203125 L 1.265625 -0.125 L 1.265625 0 L 0.140625 0 L 0.140625 -0.125 L 0.5625 -0.203125 L 0.5625 -3.078125 L 0.140625 -3.140625 L 0.140625 -3.28125 L 1.140625 -3.28125 L 2.203125 -0.78125 L 3.359375 -3.28125 L 4.296875 -3.28125 L 4.296875 -3.140625 L 3.875 -3.078125 L 3.875 -0.203125 L 4.296875 -0.125 L 4.296875 0 L 2.96875 0 L 2.96875 -0.125 L 3.40625 -0.203125 L 3.40625 -2.8125 Z "/>
</g>
<g id="glyph-0-1">
<path d="M 2.3125 -1.15625 C 2.3125 -0.351562 1.953125 0.046875 1.234375 0.046875 C 0.890625 0.046875 0.628906 -0.0546875 0.453125 -0.265625 C 0.273438 -0.472656 0.1875 -0.769531 0.1875 -1.15625 C 0.1875 -1.539062 0.273438 -1.835938 0.453125 -2.046875 C 0.628906 -2.253906 0.894531 -2.359375 1.25 -2.359375 C 1.601562 -2.359375 1.867188 -2.253906 2.046875 -2.046875 C 2.222656 -1.847656 2.3125 -1.550781 2.3125 -1.15625 Z M 1.875 -1.15625 C 1.875 -1.507812 1.820312 -1.765625 1.71875 -1.921875 C 1.613281 -2.078125 1.453125 -2.15625 1.234375 -2.15625 C 1.023438 -2.15625 0.867188 -2.078125 0.765625 -1.921875 C 0.671875 -1.773438 0.625 -1.519531 0.625 -1.15625 C 0.625 -0.789062 0.671875 -0.53125 0.765625 -0.375 C 0.867188 -0.21875 1.023438 -0.140625 1.234375 -0.140625 C 1.453125 -0.140625 1.613281 -0.21875 1.71875 -0.375 C 1.820312 -0.539062 1.875 -0.800781 1.875 -1.15625 Z "/>
</g>
<g id="glyph-0-2">
<path d="M 1.765625 -0.171875 C 1.578125 -0.0234375 1.363281 0.046875 1.125 0.046875 C 0.5 0.046875 0.1875 -0.34375 0.1875 -1.125 C 0.1875 -1.53125 0.273438 -1.835938 0.453125 -2.046875 C 0.628906 -2.253906 0.890625 -2.359375 1.234375 -2.359375 C 1.410156 -2.359375 1.585938 -2.335938 1.765625 -2.296875 C 1.753906 -2.347656 1.75 -2.484375 1.75 -2.703125 L 1.75 -3.296875 L 1.359375 -3.359375 L 1.359375 -3.46875 L 2.15625 -3.46875 L 2.15625 -0.171875 L 2.4375 -0.109375 L 2.4375 0 L 1.796875 0 Z M 0.625 -1.125 C 0.625 -0.8125 0.675781 -0.578125 0.78125 -0.421875 C 0.882812 -0.273438 1.039062 -0.203125 1.25 -0.203125 C 1.4375 -0.203125 1.601562 -0.234375 1.75 -0.296875 L 1.75 -2.109375 C 1.601562 -2.140625 1.4375 -2.15625 1.25 -2.15625 C 0.832031 -2.15625 0.625 -1.8125 0.625 -1.125 Z "/>
</g>
<g id="glyph-0-3">
<path d="M 0.640625 -1.15625 L 0.640625 -1.109375 C 0.640625 -0.890625 0.660156 -0.71875 0.703125 -0.59375 C 0.753906 -0.46875 0.832031 -0.367188 0.9375 -0.296875 C 1.039062 -0.234375 1.175781 -0.203125 1.34375 -0.203125 C 1.4375 -0.203125 1.539062 -0.207031 1.65625 -0.21875 C 1.78125 -0.238281 1.878906 -0.257812 1.953125 -0.28125 L 1.953125 -0.140625 C 1.878906 -0.0859375 1.773438 -0.0390625 1.640625 0 C 1.503906 0.03125 1.363281 0.046875 1.21875 0.046875 C 0.863281 0.046875 0.601562 -0.046875 0.4375 -0.234375 C 0.28125 -0.429688 0.203125 -0.742188 0.203125 -1.171875 C 0.203125 -1.566406 0.285156 -1.863281 0.453125 -2.0625 C 0.617188 -2.257812 0.859375 -2.359375 1.171875 -2.359375 C 1.753906 -2.359375 2.046875 -2.023438 2.046875 -1.359375 L 2.046875 -1.15625 Z M 1.171875 -2.15625 C 0.992188 -2.15625 0.859375 -2.085938 0.765625 -1.953125 C 0.679688 -1.816406 0.640625 -1.613281 0.640625 -1.34375 L 1.625 -1.34375 C 1.625 -1.632812 1.582031 -1.84375 1.5 -1.96875 C 1.425781 -2.09375 1.316406 -2.15625 1.171875 -2.15625 Z "/>
</g>
<g id="glyph-0-4">
</g>
<g id="glyph-0-5">
<path d="M 0.796875 -2.109375 C 0.921875 -2.179688 1.050781 -2.238281 1.1875 -2.28125 C 1.332031 -2.332031 1.453125 -2.359375 1.546875 -2.359375 C 1.742188 -2.359375 1.890625 -2.300781 1.984375 -2.1875 C 2.085938 -2.070312 2.140625 -1.90625 2.140625 -1.6875 L 2.140625 -0.171875 L 2.421875 -0.109375 L 2.421875 0 L 1.4375 0 L 1.4375 -0.109375 L 1.734375 -0.171875 L 1.734375 -1.640625 C 1.734375 -1.773438 1.703125 -1.878906 1.640625 -1.953125 C 1.578125 -2.035156 1.472656 -2.078125 1.328125 -2.078125 C 1.179688 -2.078125 1.003906 -2.050781 0.796875 -2 L 0.796875 -0.171875 L 1.109375 -0.109375 L 1.109375 0 L 0.109375 0 L 0.109375 -0.109375 L 0.390625 -0.171875 L 0.390625 -2.125 L 0.109375 -2.1875 L 0.109375 -2.296875 L 0.765625 -2.296875 Z "/>
</g>
<g id="glyph-0-6">
<path d="M 0.765625 -0.65625 C 0.765625 -0.375 0.894531 -0.234375 1.15625 -0.234375 C 1.351562 -0.234375 1.539062 -0.257812 1.71875 -0.3125 L 1.71875 -2.125 L 1.375 -2.1875 L 1.375 -2.296875 L 2.125 -2.296875 L 2.125 -0.171875 L 2.421875 -0.109375 L 2.421875 0 L 1.75 0 L 1.71875 -0.1875 C 1.601562 -0.125 1.46875 -0.0664062 1.3125 -0.015625 C 1.164062 0.0234375 1.039062 0.046875 0.9375 0.046875 C 0.550781 0.046875 0.359375 -0.175781 0.359375 -0.625 L 0.359375 -2.125 L 0.0625 -2.1875 L 0.0625 -2.296875 L 0.765625 -2.296875 Z "/>
</g>
<g id="glyph-0-7">
<path d="M 0.796875 -2.109375 C 0.921875 -2.179688 1.050781 -2.238281 1.1875 -2.28125 C 1.320312 -2.332031 1.441406 -2.359375 1.546875 -2.359375 C 1.660156 -2.359375 1.765625 -2.335938 1.859375 -2.296875 C 1.953125 -2.253906 2.023438 -2.1875 2.078125 -2.09375 C 2.203125 -2.15625 2.347656 -2.210938 2.515625 -2.265625 C 2.679688 -2.328125 2.820312 -2.359375 2.9375 -2.359375 C 3.320312 -2.359375 3.515625 -2.132812 3.515625 -1.6875 L 3.515625 -0.171875 L 3.8125 -0.109375 L 3.8125 0 L 2.765625 0 L 2.765625 -0.109375 L 3.109375 -0.171875 L 3.109375 -1.640625 C 3.109375 -1.921875 2.976562 -2.0625 2.71875 -2.0625 C 2.675781 -2.0625 2.625 -2.054688 2.5625 -2.046875 C 2.507812 -2.035156 2.453125 -2.023438 2.390625 -2.015625 C 2.335938 -2.015625 2.285156 -2.007812 2.234375 -2 C 2.191406 -1.988281 2.148438 -1.976562 2.109375 -1.96875 C 2.140625 -1.882812 2.15625 -1.789062 2.15625 -1.6875 L 2.15625 -0.171875 L 2.5 -0.109375 L 2.5 0 L 1.40625 0 L 1.40625 -0.109375 L 1.75 -0.171875 L 1.75 -1.640625 C 1.75 -1.773438 1.710938 -1.878906 1.640625 -1.953125 C 1.578125 -2.023438 1.472656 -2.0625 1.328125 -2.0625 C 1.191406 -2.0625 1.015625 -2.035156 0.796875 -1.984375 L 0.796875 -0.171875 L 1.140625 -0.109375 L 1.140625 0 L 0.109375 0 L 0.109375 -0.109375 L 0.390625 -0.171875 L 0.390625 -2.125 L 0.109375 -2.1875 L 0.109375 -2.296875 L 0.78125 -2.296875 Z "/>
</g>
<g id="glyph-0-8">
<path d="M 1.875 -1.21875 C 1.875 -1.507812 1.820312 -1.726562 1.71875 -1.875 C 1.613281 -2.019531 1.453125 -2.09375 1.234375 -2.09375 C 1.140625 -2.09375 1.039062 -2.082031 0.9375 -2.0625 C 0.84375 -2.050781 0.773438 -2.035156 0.734375 -2.015625 L 0.734375 -0.203125 C 0.867188 -0.171875 1.035156 -0.15625 1.234375 -0.15625 C 1.453125 -0.15625 1.613281 -0.242188 1.71875 -0.421875 C 1.820312 -0.597656 1.875 -0.863281 1.875 -1.21875 Z M 0.328125 -3.296875 L 0 -3.359375 L 0 -3.46875 L 0.734375 -3.46875 L 0.734375 -2.65625 C 0.734375 -2.5625 0.726562 -2.398438 0.71875 -2.171875 C 0.882812 -2.296875 1.09375 -2.359375 1.34375 -2.359375 C 1.65625 -2.359375 1.894531 -2.257812 2.0625 -2.0625 C 2.226562 -1.875 2.3125 -1.59375 2.3125 -1.21875 C 2.3125 -0.800781 2.21875 -0.484375 2.03125 -0.265625 C 1.851562 -0.0546875 1.585938 0.046875 1.234375 0.046875 C 1.097656 0.046875 0.945312 0.03125 0.78125 0 C 0.613281 -0.03125 0.460938 -0.0703125 0.328125 -0.125 Z "/>
</g>
<g id="glyph-0-9">
<path d="M 1.625 -2.359375 L 1.625 -1.734375 L 1.515625 -1.734375 L 1.375 -2 C 1.289062 -2 1.191406 -1.988281 1.078125 -1.96875 C 0.972656 -1.945312 0.878906 -1.921875 0.796875 -1.890625 L 0.796875 -0.171875 L 1.1875 -0.109375 L 1.1875 0 L 0.09375 0 L 0.09375 -0.109375 L 0.390625 -0.171875 L 0.390625 -2.125 L 0.09375 -2.1875 L 0.09375 -2.296875 L 0.765625 -2.296875 L 0.796875 -2.015625 C 0.890625 -2.085938 1.019531 -2.160156 1.1875 -2.234375 C 1.351562 -2.316406 1.484375 -2.359375 1.578125 -2.359375 Z "/>
</g>
<g id="glyph-0-10">
<path d="M 3.4375 -0.9375 C 3.34375 -1.039062 3.242188 -1.203125 3.140625 -1.421875 L 3.328125 -1.421875 C 3.523438 -1.171875 3.742188 -0.988281 3.984375 -0.875 L 3.984375 -0.78125 C 3.742188 -0.664062 3.523438 -0.488281 3.328125 -0.25 L 3.140625 -0.25 C 3.242188 -0.457031 3.34375 -0.613281 3.4375 -0.71875 L 1.015625 -0.71875 L 1.015625 -0.9375 Z "/>
</g>
</g>
</defs>
<g fill="rgb(34.509804%, 35.686275%, 43.921569%)" fill-opacity="1">
<use xlink:href="#glyph-0-0" x="30" y="24.456055"/>
<use xlink:href="#glyph-0-1" x="34" y="24.456055"/>
<use xlink:href="#glyph-0-2" x="37" y="24.456055"/>
<use xlink:href="#glyph-0-3" x="40" y="24.456055"/>
<use xlink:href="#glyph-0-4" x="42" y="24.456055"/>
<use xlink:href="#glyph-0-5" x="43" y="24.456055"/>
<use xlink:href="#glyph-0-6" x="46" y="24.456055"/>
<use xlink:href="#glyph-0-7" x="49" y="24.456055"/>
<use xlink:href="#glyph-0-8" x="53" y="24.456055"/>
<use xlink:href="#glyph-0-3" x="56" y="24.456055"/>
<use xlink:href="#glyph-0-9" x="58" y="24.456055"/>
<use xlink:href="#glyph-0-4" x="60" y="24.456055"/>
<use xlink:href="#glyph-0-10" x="61" y="24.456055"/>
</g>
</svg>
