<?xml version="1.0" encoding="UTF-8"?>
<svg xmlns="http://www.w3.org/2000/svg" xmlns:xlink="http://www.w3.org/1999/xlink" width="854" height="480" viewBox="0 0 854 480">
<defs>
<g>
<g id="glyph-0-0">
<path d="M 0.953125 -2.1875 C 0.953125 -1.488281 1.066406 -0.976562 1.296875 -0.65625 C 1.535156 -0.34375 1.90625 -0.1875 2.40625 -0.1875 C 2.90625 -0.1875 3.269531 -0.34375 3.5 -0.65625 C 3.738281 -0.976562 3.859375 -1.488281 3.859375 -2.1875 C 3.859375 -2.882812 3.738281 -3.382812 3.5 -3.6875 C 3.269531 -4 2.90625 -4.15625 2.40625 -4.15625 C 1.90625 -4.15625 1.535156 -4 1.296875 -3.6875 C 1.066406 -3.382812 0.953125 -2.882812 0.953125 -2.1875 Z M 0.28125 -2.1875 C 0.28125 -3.675781 0.988281 -4.421875 2.40625 -4.421875 C 3.113281 -4.421875 3.644531 -4.226562 4 -3.84375 C 4.363281 -3.46875 4.546875 -2.914062 4.546875 -2.1875 C 4.546875 -1.445312 4.363281 -0.882812 4 -0.5 C 3.632812 -0.125 3.101562 0.0625 2.40625 0.0625 C 1.71875 0.0625 1.191406 -0.125 0.828125 -0.5 C 0.460938 -0.882812 0.28125 -1.445312 0.28125 -2.1875 Z "/>
</g>
<g id="glyph-0-1">
<path d="M 2.15625 -3.140625 L 2.15625 -2.3125 L 2.015625 -2.3125 L 1.828125 -2.671875 C 1.722656 -2.671875 1.59375 -2.65625 1.4375 -2.625 C 1.289062 -2.601562 1.164062 -2.566406 1.0625 -2.515625 L 1.0625 -0.234375 L 1.59375 -0.140625 L 1.59375 0 L 0.140625 0 L 0.140625 -0.140625 L 0.515625 -0.234375 L 0.515625 -2.828125 L 0.140625 -2.921875 L 0.140625 -3.0625 L 1.03125 -3.0625 L 1.0625 -2.6875 C 1.1875 -2.789062 1.359375 -2.890625 1.578125 -2.984375 C 1.804688 -3.085938 1.984375 -3.140625 2.109375 -3.140625 Z "/>
</g>
<g id="glyph-0-2">
<path d="M 1.234375 -4.0625 C 1.234375 -3.96875 1.195312 -3.882812 1.125 -3.8125 C 1.0625 -3.738281 0.976562 -3.703125 0.875 -3.703125 C 0.78125 -3.703125 0.695312 -3.738281 0.625 -3.8125 C 0.5625 -3.882812 0.53125 -3.96875 0.53125 -4.0625 C 0.53125 -4.15625 0.5625 -4.238281 0.625 -4.3125 C 0.695312 -4.382812 0.78125 -4.421875 0.875 -4.421875 C 0.976562 -4.421875 1.0625 -4.382812 1.125 -4.3125 C 1.195312 -4.238281 1.234375 -4.15625 1.234375 -4.0625 Z M 1.203125 -0.234375 L 1.734375 -0.140625 L 1.734375 0 L 0.140625 0 L 0.140625 -0.140625 L 0.65625 -0.234375 L 0.65625 -2.828125 L 0.234375 -2.921875 L 0.234375 -3.0625 L 1.203125 -3.0625 Z "/>
</g>
<g id="glyph-0-3">
<path d="M 2.828125 -2.09375 C 2.828125 -1.738281 2.722656 -1.472656 2.515625 -1.296875 C 2.304688 -1.117188 2.003906 -1.03125 1.609375 -1.03125 C 1.429688 -1.03125 1.265625 -1.046875 1.109375 -1.078125 L 0.90625 -0.640625 C 0.914062 -0.609375 0.957031 -0.578125 1.03125 -0.546875 C 1.113281 -0.515625 1.210938 -0.5 1.328125 -0.5 L 2.234375 -0.5 C 2.566406 -0.5 2.8125 -0.425781 2.96875 -0.28125 C 3.125 -0.132812 3.203125 0.0625 3.203125 0.3125 C 3.203125 0.539062 3.140625 0.738281 3.015625 0.90625 C 2.890625 1.070312 2.703125 1.203125 2.453125 1.296875 C 2.210938 1.390625 1.914062 1.4375 1.5625 1.4375 C 1.144531 1.4375 0.828125 1.375 0.609375 1.25 C 0.390625 1.125 0.28125 0.941406 0.28125 0.703125 C 0.28125 0.585938 0.316406 0.472656 0.390625 0.359375 C 0.472656 0.242188 0.617188 0.113281 0.828125 -0.03125 C 0.703125 -0.0703125 0.597656 -0.140625 0.515625 -0.234375 C 0.429688 -0.335938 0.390625 -0.445312 0.390625 -0.5625 L 0.90625 -1.140625 C 0.5625 -1.304688 0.390625 -1.625 0.390625 -2.09375 C 0.390625 -2.425781 0.492188 -2.679688 0.703125 -2.859375 C 0.921875 -3.046875 1.234375 -3.140625 1.640625 -3.140625 C 1.710938 -3.140625 1.8125 -3.128906 1.9375 -3.109375 C 2.070312 -3.097656 2.171875 -3.082031 2.234375 -3.0625 L 2.953125 -3.421875 L 3.0625 -3.28125 L 2.609375 -2.8125 C 2.753906 -2.65625 2.828125 -2.414062 2.828125 -2.09375 Z M 2.703125 0.40625 C 2.703125 0.289062 2.660156 0.195312 2.578125 0.125 C 2.503906 0.0507812 2.390625 0.015625 2.234375 0.015625 L 1.0625 0.015625 C 0.96875 0.0976562 0.890625 0.195312 0.828125 0.3125 C 0.773438 0.4375 0.75 0.550781 0.75 0.65625 C 0.75 0.84375 0.816406 0.972656 0.953125 1.046875 C 1.085938 1.128906 1.289062 1.171875 1.5625 1.171875 C 1.925781 1.171875 2.207031 1.101562 2.40625 0.96875 C 2.601562 0.84375 2.703125 0.65625 2.703125 0.40625 Z M 1.609375 -1.28125 C 1.847656 -1.28125 2.015625 -1.347656 2.109375 -1.484375 C 2.210938 -1.617188 2.265625 -1.820312 2.265625 -2.09375 C 2.265625 -2.382812 2.210938 -2.585938 2.109375 -2.703125 C 2.015625 -2.828125 1.851562 -2.890625 1.625 -2.890625 C 1.394531 -2.890625 1.226562 -2.828125 1.125 -2.703125 C 1.019531 -2.585938 0.96875 -2.382812 0.96875 -2.09375 C 0.96875 -1.8125 1.019531 -1.601562 1.125 -1.46875 C 1.226562 -1.34375 1.390625 -1.28125 1.609375 -1.28125 Z "/>
</g>
<g id="glyph-0-4">
<path d="M 1.0625 -2.8125 C 1.226562 -2.90625 1.40625 -2.984375 1.59375 -3.046875 C 1.78125 -3.109375 1.9375 -3.140625 2.0625 -3.140625 C 2.320312 -3.140625 2.519531 -3.0625 2.65625 -2.90625 C 2.789062 -2.757812 2.859375 -2.535156 2.859375 -2.234375 L 2.859375 -0.234375 L 3.234375 -0.140625 L 3.234375 0 L 1.921875 0 L 1.921875 -0.140625 L 2.328125 -0.234375 L 2.328125 -2.1875 C 2.328125 -2.363281 2.28125 -2.503906 2.1875 -2.609375 C 2.101562 -2.710938 1.96875 -2.765625 1.78125 -2.765625 C 1.582031 -2.765625 1.34375 -2.734375 1.0625 -2.671875 L 1.0625 -0.234375 L 1.46875 -0.140625 L 1.46875 0 L 0.15625 0 L 0.15625 -0.140625 L 0.515625 -0.234375 L 0.515625 -2.828125 L 0.15625 -2.921875 L 0.15625 -3.0625 L 1.03125 -3.0625 Z "/>
</g>
<g id="glyph-0-5">
<path d="M 1.515625 -3.125 C 1.847656 -3.125 2.09375 -3.054688 2.25 -2.921875 C 2.40625 -2.785156 2.484375 -2.578125 2.484375 -2.296875 L 2.484375 -0.234375 L 2.875 -0.140625 L 2.875 0 L 2.03125 0 L 1.96875 -0.3125 C 1.71875 -0.0625 1.398438 0.0625 1.015625 0.0625 C 0.492188 0.0625 0.234375 -0.238281 0.234375 -0.84375 C 0.234375 -1.050781 0.269531 -1.21875 0.34375 -1.34375 C 0.425781 -1.476562 0.554688 -1.582031 0.734375 -1.65625 C 0.910156 -1.726562 1.160156 -1.769531 1.484375 -1.78125 L 1.953125 -1.78125 L 1.953125 -2.265625 C 1.953125 -2.472656 1.910156 -2.628906 1.828125 -2.734375 C 1.753906 -2.835938 1.632812 -2.890625 1.46875 -2.890625 C 1.257812 -2.890625 1.0625 -2.835938 0.875 -2.734375 L 0.765625 -2.34375 L 0.59375 -2.34375 L 0.59375 -3.015625 C 0.9375 -3.085938 1.242188 -3.125 1.515625 -3.125 Z M 1.953125 -1.5625 L 1.515625 -1.546875 C 1.222656 -1.535156 1.023438 -1.476562 0.921875 -1.375 C 0.828125 -1.269531 0.78125 -1.097656 0.78125 -0.859375 C 0.78125 -0.484375 0.929688 -0.296875 1.234375 -0.296875 C 1.390625 -0.296875 1.519531 -0.3125 1.625 -0.34375 C 1.726562 -0.375 1.835938 -0.414062 1.953125 -0.46875 Z "/>
</g>
<g id="glyph-0-6">
<path d="M 1.203125 -0.234375 L 1.71875 -0.140625 L 1.71875 0 L 0.140625 0 L 0.140625 -0.140625 L 0.65625 -0.234375 L 0.65625 -4.40625 L 0.140625 -4.484375 L 0.140625 -4.625 L 1.203125 -4.625 Z "/>
</g>
<g id="glyph-0-7">
</g>
<g id="glyph-0-8">
<path d="M 3.875 -2.21875 C 3.875 -2.820312 3.707031 -3.28125 3.375 -3.59375 C 3.050781 -3.914062 2.582031 -4.078125 1.96875 -4.078125 L 1.375 -4.078125 L 1.375 -0.3125 C 1.632812 -0.289062 1.945312 -0.28125 2.3125 -0.28125 C 2.84375 -0.28125 3.234375 -0.4375 3.484375 -0.75 C 3.742188 -1.0625 3.875 -1.550781 3.875 -2.21875 Z M 2.171875 -4.375 C 2.984375 -4.375 3.582031 -4.191406 3.96875 -3.828125 C 4.351562 -3.472656 4.546875 -2.929688 4.546875 -2.203125 C 4.546875 -1.472656 4.359375 -0.921875 3.984375 -0.546875 C 3.609375 -0.171875 3.050781 0.015625 2.3125 0.015625 L 0.75 0 L 0.1875 0 L 0.1875 -0.171875 L 0.75 -0.265625 L 0.75 -4.109375 L 0.1875 -4.203125 L 0.1875 -4.375 Z "/>
</g>
<g id="glyph-0-9">
<path d="M 1.09375 0.0625 C 0.882812 0.0625 0.726562 0 0.625 -0.125 C 0.519531 -0.25 0.46875 -0.421875 0.46875 -0.640625 L 0.46875 -2.78125 L 0.0625 -2.78125 L 0.0625 -2.9375 L 0.46875 -3.0625 L 0.796875 -3.75 L 1 -3.75 L 1 -3.0625 L 1.703125 -3.0625 L 1.703125 -2.78125 L 1 -2.78125 L 1 -0.703125 C 1 -0.554688 1.03125 -0.445312 1.09375 -0.375 C 1.164062 -0.3125 1.253906 -0.28125 1.359375 -0.28125 C 1.484375 -0.28125 1.632812 -0.296875 1.8125 -0.328125 L 1.8125 -0.109375 C 1.738281 -0.0546875 1.628906 -0.015625 1.484375 0.015625 C 1.335938 0.046875 1.207031 0.0625 1.09375 0.0625 Z "/>
</g>
</g>
</defs>
<g fill="rgb(34.117647%, 32.156863%, 47.45098%)" fill-opacity="1">
<use xlink:href="#glyph-0-0" x="30" y="25.941406"/>
<use xlink:href="#glyph-0-1" x="35" y="25.941406"/>
<use xlink:href="#glyph-0-2" x="37" y="25.941406"/>
<use xlink:href="#glyph-0-3" x="39" y="25.941406"/>
<use xlink:href="#glyph-0-2" x="42" y="25.941406"/>
<use xlink:href="#glyph-0-4" x="44" y="25.941406"/>
<use xlink:href="#glyph-0-5" x="47" y="25.941406"/>
<use xlink:href="#glyph-0-6" x="50" y="25.941406"/>
<use xlink:href="#glyph-0-7" x="52" y="25.941406"/>
<use xlink:href="#glyph-0-8" x="54" y="25.941406"/>
<use xlink:href="#glyph-0-5" x="59" y="25.941406"/>
<use xlink:href="#glyph-0-9" x="62" y="25.941406"/>
<use xlink:href="#glyph-0-5" x="64" y="25.941406"/>
</g>
</svg>
