<?xml version="1.0" encoding="UTF-8"?>
<svg xmlns="http://www.w3.org/2000/svg" xmlns:xlink="http://www.w3.org/1999/xlink" width="854" height="480" viewBox="0 0 854 480">
<defs>
<g>
<g id="glyph-0-0">
<path d="M 2.34375 0 L 2.25 0 L 0.90625 -3.125 L 0.90625 -0.21875 L 1.40625 -0.140625 L 1.40625 0 L 0.15625 0 L 0.15625 -0.140625 L 0.625 -0.21875 L 0.625 -3.421875 L 0.15625 -3.5 L 0.15625 -3.640625 L 1.265625 -3.640625 L 2.453125 -0.875 L 3.734375 -3.640625 L 4.78125 -3.640625 L 4.78125 -3.5 L 4.3125 -3.421875 L 4.3125 -0.21875 L 4.78125 -0.140625 L 4.78125 0 L 3.3125 0 L 3.3125 -0.140625 L 3.796875 -0.21875 L 3.796875 -3.125 Z "/>
</g>
<g id="glyph-0-1">
<path d="M 2.5625 -1.296875 C 2.5625 -0.398438 2.164062 0.046875 1.375 0.046875 C 0.988281 0.046875 0.695312 -0.0664062 0.5 -0.296875 C 0.3125 -0.523438 0.21875 -0.859375 0.21875 -1.296875 C 0.21875 -1.722656 0.3125 -2.050781 0.5 -2.28125 C 0.695312 -2.507812 0.992188 -2.625 1.390625 -2.625 C 1.785156 -2.625 2.078125 -2.507812 2.265625 -2.28125 C 2.460938 -2.0625 2.5625 -1.734375 2.5625 -1.296875 Z M 2.078125 -1.296875 C 2.078125 -1.679688 2.019531 -1.960938 1.90625 -2.140625 C 1.789062 -2.316406 1.613281 -2.40625 1.375 -2.40625 C 1.132812 -2.40625 0.960938 -2.320312 0.859375 -2.15625 C 0.753906 -1.988281 0.703125 -1.703125 0.703125 -1.296875 C 0.703125 -0.878906 0.753906 -0.582031 0.859375 -0.40625 C 0.972656 -0.238281 1.144531 -0.15625 1.375 -0.15625 C 1.613281 -0.15625 1.789062 -0.242188 1.90625 -0.421875 C 2.019531 -0.597656 2.078125 -0.890625 2.078125 -1.296875 Z "/>
</g>
<g id="glyph-0-2">
<path d="M 1.96875 -0.1875 C 1.757812 -0.03125 1.519531 0.046875 1.25 0.046875 C 0.550781 0.046875 0.203125 -0.382812 0.203125 -1.25 C 0.203125 -1.695312 0.300781 -2.035156 0.5 -2.265625 C 0.695312 -2.503906 0.988281 -2.625 1.375 -2.625 C 1.5625 -2.625 1.757812 -2.601562 1.96875 -2.5625 C 1.957031 -2.613281 1.953125 -2.765625 1.953125 -3.015625 L 1.953125 -3.671875 L 1.515625 -3.734375 L 1.515625 -3.859375 L 2.390625 -3.859375 L 2.390625 -0.1875 L 2.71875 -0.125 L 2.71875 0 L 2 0 Z M 0.6875 -1.25 C 0.6875 -0.90625 0.742188 -0.648438 0.859375 -0.484375 C 0.972656 -0.316406 1.148438 -0.234375 1.390625 -0.234375 C 1.597656 -0.234375 1.785156 -0.265625 1.953125 -0.328125 L 1.953125 -2.359375 C 1.785156 -2.378906 1.597656 -2.390625 1.390625 -2.390625 C 0.921875 -2.390625 0.6875 -2.007812 0.6875 -1.25 Z "/>
</g>
<g id="glyph-0-3">
<path d="M 0.703125 -1.28125 L 0.703125 -1.234375 C 0.703125 -0.984375 0.726562 -0.789062 0.78125 -0.65625 C 0.84375 -0.519531 0.929688 -0.414062 1.046875 -0.34375 C 1.160156 -0.269531 1.3125 -0.234375 1.5 -0.234375 C 1.59375 -0.234375 1.707031 -0.238281 1.84375 -0.25 C 1.976562 -0.269531 2.085938 -0.289062 2.171875 -0.3125 L 2.171875 -0.15625 C 2.085938 -0.101562 1.96875 -0.0546875 1.8125 -0.015625 C 1.664062 0.0234375 1.515625 0.046875 1.359375 0.046875 C 0.960938 0.046875 0.671875 -0.0546875 0.484375 -0.265625 C 0.304688 -0.484375 0.21875 -0.828125 0.21875 -1.296875 C 0.21875 -1.742188 0.3125 -2.078125 0.5 -2.296875 C 0.6875 -2.515625 0.953125 -2.625 1.296875 -2.625 C 1.953125 -2.625 2.28125 -2.25 2.28125 -1.5 L 2.28125 -1.28125 Z M 1.296875 -2.40625 C 1.109375 -2.40625 0.960938 -2.328125 0.859375 -2.171875 C 0.765625 -2.023438 0.71875 -1.800781 0.71875 -1.5 L 1.796875 -1.5 C 1.796875 -1.820312 1.753906 -2.050781 1.671875 -2.1875 C 1.585938 -2.332031 1.460938 -2.40625 1.296875 -2.40625 Z "/>
</g>
<g id="glyph-0-4">
</g>
<g id="glyph-0-5">
<path d="M 1.703125 -0.21875 L 2.453125 -0.140625 L 2.453125 0 L 0.484375 0 L 0.484375 -0.140625 L 1.234375 -0.21875 L 1.234375 -3.1875 L 0.5 -2.921875 L 0.5 -3.0625 L 1.5625 -3.671875 L 1.703125 -3.671875 Z "/>
</g>
<g id="glyph-0-6">
<path d="M 1.703125 -1.703125 L 1.703125 -0.546875 L 1.421875 -0.546875 L 1.421875 -1.703125 L 0.28125 -1.703125 L 0.28125 -1.984375 L 1.421875 -1.984375 L 1.421875 -3.140625 L 1.703125 -3.140625 L 1.703125 -1.984375 L 2.859375 -1.984375 L 2.859375 -1.703125 Z "/>
</g>
<g id="glyph-0-7">
<path d="M 2.46875 0 L 0.25 0 L 0.25 -0.40625 L 0.75 -0.859375 C 1.070312 -1.140625 1.304688 -1.367188 1.453125 -1.546875 C 1.609375 -1.722656 1.71875 -1.90625 1.78125 -2.09375 C 1.851562 -2.28125 1.890625 -2.492188 1.890625 -2.734375 C 1.890625 -2.960938 1.832031 -3.140625 1.71875 -3.265625 C 1.613281 -3.390625 1.441406 -3.453125 1.203125 -3.453125 C 1.109375 -3.453125 1.007812 -3.4375 0.90625 -3.40625 C 0.800781 -3.382812 0.710938 -3.351562 0.640625 -3.3125 L 0.546875 -2.859375 L 0.359375 -2.859375 L 0.359375 -3.5625 C 0.691406 -3.644531 0.972656 -3.6875 1.203125 -3.6875 C 1.597656 -3.6875 1.894531 -3.601562 2.09375 -3.4375 C 2.300781 -3.269531 2.40625 -3.035156 2.40625 -2.734375 C 2.40625 -2.523438 2.363281 -2.332031 2.28125 -2.15625 C 2.207031 -1.976562 2.085938 -1.800781 1.921875 -1.625 C 1.753906 -1.445312 1.484375 -1.195312 1.109375 -0.875 C 0.953125 -0.738281 0.78125 -0.585938 0.59375 -0.421875 L 2.46875 -0.421875 Z "/>
</g>
</g>
</defs>
<g fill="rgb(56.470588%, 47.843137%, 66.27451%)" fill-opacity="1">
<use xlink:href="#glyph-0-0" x="30" y="24.951172"/>
<use xlink:href="#glyph-0-1" x="35" y="24.951172"/>
<use xlink:href="#glyph-0-2" x="38" y="24.951172"/>
<use xlink:href="#glyph-0-3" x="41" y="24.951172"/>
<use xlink:href="#glyph-0-4" x="43" y="24.951172"/>
<use xlink:href="#glyph-0-5" x="44" y="24.951172"/>
<use xlink:href="#glyph-0-4" x="47" y="24.951172"/>
<use xlink:href="#glyph-0-6" x="48" y="24.951172"/>
<use xlink:href="#glyph-0-4" x="51" y="24.951172"/>
<use xlink:href="#glyph-0-0" x="52" y="24.951172"/>
<use xlink:href="#glyph-0-1" x="57" y="24.951172"/>
<use xlink:href="#glyph-0-2" x="60" y="24.951172"/>
<use xlink:href="#glyph-0-3" x="63" y="24.951172"/>
<use xlink:href="#glyph-0-4" x="65" y="24.951172"/>
<use xlink:href="#glyph-0-7" x="66" y="24.951172"/>
</g>
</svg>
